<svg xmlns="http://www.w3.org/2000/svg" viewBox="106 296 400 200"><path fill="#5F5C5D" d="M126.2 308.1v25.5h-5.8V308h-5.7v-5.6H132v5.6l-5.8.1zM147.9 333.6v-12.9c0-4-2.1-5.8-4.7-5.8-3 0-4.7 2.2-4.7 5.9v12.8h-5.6v-31.1h5.6v9.6l.5-.5c1.7-1.6 3.9-2.2 6.4-2 4.8.4 8.2 4.4 8.2 9.4v14.6h-5.7zM177.9 324.5h-18.1l.2.6c1.1 2.6 3.3 3.8 6.1 3.9 1.9 0 3.7-.9 4.7-1.7l.3-.3h6l-.3.6c-1.2 3.1-5.8 6.6-10.6 6.7-6.7.1-12.2-5.3-12.3-12-.2-6.9 5.4-12.8 12.3-12.6 7.8.2 12.6 7.2 11.7 13.7v1.1zm-5.4-5.2c-.5-2-3.1-4.2-6.2-4.2-2.9 0-5.4 1.8-6.3 4.1l-.1.4h12.7l-.1-.3zM197.9 334.3c-7.4 0-9.9-6.4-10-8.9v-.6h6v.5c0 1.6 1.9 3.4 3.9 3.4 2.2.1 4.4-1.6 4.3-4.1-.2-3.4-3.3-4.4-6.6-5.5-4.3-1.4-6.6-4.8-6.4-9.1.3-4.6 4.1-8.2 8.7-8.3 4.6-.1 8.9 3.6 9.2 8.4v.5h-6v-.5c-.1-1.3-1.4-2.9-3.5-2.9-1.9 0-3 1.7-3 2.8-.2 3 1.9 3.6 5.4 5 1.9.7 7.6 2.5 7.8 9.2.4 5.5-4 10.2-9.8 10.1zM220.5 334.4c-6.7-.2-12-5.8-11.9-12.5 0-6.7 5.4-12.2 12.1-12.3 6.8-.1 12.5 5.6 12.5 12.4-.1 6.8-5.9 12.6-12.7 12.4zm.1-19.3c-3.7.1-6.6 3.2-6.6 6.9 0 3.8 3.2 7.1 7 6.9 3.7-.1 6.7-3.4 6.6-7.1-.1-3.7-3.3-6.7-7-6.7zM234.2 333.6v-31.1h5.6v31.1h-5.6zM264.8 324.5h-18l.2.6c1.1 2.6 3.3 3.8 6.1 3.9 2 0 3.7-.9 4.7-1.7l.3-.3h6l-.3.6c-1.2 3.1-5.8 6.6-10.6 6.7-6.7.1-12.2-5.3-12.3-12-.1-6.9 5.4-12.8 12.3-12.6 7.8.2 12.6 7.2 11.7 13.7l-.1 1.1zm-5.5-5.2c-.5-2-3.1-4.2-6.2-4.2-2.9 0-5.4 1.8-6.3 4.1l-.1.4h12.7l-.1-.3zM280.8 333.6v-12.7c0-4-2-6-4.5-5.9-3 0-4.9 1.8-4.9 5.8v12.8h-5.6v-23.3h5.2v2.1l.4-.5c1.3-1.5 3.5-2.4 5.9-2.4 5 0 9 4.1 9.1 9.4v14.7h-5.6zM295.7 315.2v18.4h-5.6v-18.3h-2.8v-5h2.8v-7.9h5.6v7.9h3.3v4.9h-3.3zM260.5 459.5c-19.3 0-34.6-13.7-35.4-33.3h21.1c.2 8.8 6 14.5 14.9 14.5 8.2 0 14.7-5.2 14.7-13.7 0-18-25.5-15.3-37.6-27.6-5.7-5.9-9.2-13.9-9.2-22 0-17.3 14.7-31 31.8-31 17.8 0 31.4 13.4 32.4 31h-20.9c-.5-7-4.6-12.3-11.9-12.3-6.7 0-11.3 4.3-11.3 11.1 0 2 .3 3.9 1.2 5.6 2.8 4.9 12.3 7.9 17.2 9.6 6.9 2.5 13.2 4.7 18.6 10 6.5 6.4 9.8 13.7 9.8 22.9-.1 19.5-15.8 35.2-35.4 35.2z"/><path fill="#F9B235" d="M318.6 377.3s2-23.5-29.8-32.4c0 0 44.2 1 44.2 32.4"/><path fill="#5F5C5D" d="M336.2 458.3c-5 0-9.9-1-14.4-3-4.4-2-8.4-4.7-11.8-8.2-3.4-3.5-6.1-7.5-8-12-2-4.7-2.9-9.6-2.9-14.6s1-9.9 2.9-14.5c1.9-4.4 4.5-8.4 7.9-11.9 3.4-3.5 7.3-6.1 11.7-8 4.5-2 9.4-3 14.3-3 10.1 0 19.3 4 26.7 11.5 3.4 3.5 5.1 6 7 10.8l1.7 4.2h-19.7l-.9-1.1c-4.3-5.2-9.4-7.8-15.2-7.8-9.7 0-18.2 9.3-18.2 20 0 10.9 8.6 20.1 18.7 20.1 6.2 0 10-2.8 14.1-7.3l.9-1h19.9l-1.7 4.2c-2.7 6.5-7.3 11.9-13.3 15.8-5.9 3.8-12.7 5.8-19.7 5.8z"/><g fill="#5F5C5D"><path d="M378.2 456.3v-68.8h12.1v68.8h-12.1z"/><path d="M393.4 459.5h-18.3v-75.1h18.3v75.1z"/></g><g fill="#5F5C5D"><path d="M417.1 378.5v81h-18.2v-81h-23.7v-17h60v17h-18.1z"/><path d="M417.1 459.5h-18.2v-81h-23.7v-17.1h60v17.1H417l.1 81zm-18.2 0H417v-81h18.2v-17h-60v17h23.7v81z"/></g><g fill="#5F5C5D"><path d="M478 378.3v81.3h-18.8v-81.3h-18.9v-17.1h56.4v17.1H478z"/><path d="M478 459.6h-18.8v-81.3h-18.9v-17.1h56.5v17.1H478v81.3zm-18.8 0H478v-81.3h18.8v-17.1h-56.4v17.1h18.9l-.1 81.3z"/></g><path fill="#E84791" d="M337.3 377.7s2-23.5-29.8-32.4c0 0 44.2 1 44.2 32.4"/><path fill="#39ABE2" d="M355.9 378.3s2-23.5-29.8-32.4c0 0 44.2 1 44.2 32.4"/><path fill="#F9B235" d="M173.4 459.2c-13.9-69.7 60-106.5 60-106.5-81.1 28.1-84.6 89.8-85.6 106.5h25.6z"/><g fill="#FBE90F"><path d="M270.3 344.9c28.6 4 29.8 32.4 29.8 32.4h14.4c0-31.4-44.2-32.4-44.2-32.4zM115.6 459.2h25.3c2.4-95 99.4-112.9 99.4-112.9-103 6.4-119.5 92-124.7 112.9z"/></g><path fill="#E84791" d="M203.6 459.2c-26.8-44.3 21.8-95 21.8-95-52.9 32.4-47.8 83.4-45.3 95h23.5z"/><path fill="#39ABE2" d="M236.1 459.2c-35.8-21-13.2-84.1-13.2-84.1-32.3 48.2-18.5 76.4-11.5 84.1h24.7z"/><g fill="#5F5C5D"><path d="M120.2 485.9c-2.7 0-4.8-1.9-4.9-4.6h2.9c0 1.2.8 2 2.1 2 1.1 0 2-.7 2-1.9 0-2.5-3.5-2.1-5.2-3.8-.8-.8-1.3-1.9-1.3-3.1 0-2.4 2-4.3 4.4-4.3 2.5 0 4.3 1.9 4.5 4.3h-2.9c-.1-1-.6-1.7-1.6-1.7-.9 0-1.6.6-1.6 1.6 0 .3.1.5.1.8.4.7 1.7 1.1 2.4 1.3.9.3 1.8.7 2.6 1.4.9.9 1.4 1.9 1.4 3.2 0 2.6-2.2 4.8-4.9 4.8zM135.8 485c-.9.6-2.2.9-3.3.9-3.3 0-6-2.8-6-6.1s2.7-6 6-6c1.8 0 3.5.8 4.6 2.2.6.7.8 1.1 1 2H135c-.6-1.1-1.3-1.6-2.6-1.6-2 0-3.3 1.6-3.3 3.6s1.4 3.5 3.4 3.5c1.1 0 2-.7 2.5-1.6h3.1c-.4 1.4-1.1 2.4-2.3 3.1zM147.1 485.6v-5.8c0-1.6-.3-3.5-2.3-3.5-2 0-2.3 1.9-2.3 3.5v5.8h-2.7v-15.1h2.7v4.5c.8-.8 1.8-1.2 2.9-1.2 1.6 0 3.2 1 3.9 2.4.4.9.5 1.9.5 2.9v6.4l-2.7.1zM157.7 486c-3.3 0-6-2.7-6-6s2.7-6 6.1-6c3.3 0 6 2.7 6 6-.1 3.3-2.7 6-6.1 6zm0-9.6c-1.9 0-3.3 1.7-3.3 3.6 0 1.9 1.4 3.5 3.3 3.5s3.3-1.6 3.3-3.5c0-1.8-1.4-3.6-3.3-3.6zM171.1 486c-3.3 0-6-2.7-6-6s2.7-6 6.1-6c3.3 0 6 2.7 6 6-.1 3.3-2.8 6-6.1 6zm0-9.6c-1.9 0-3.3 1.7-3.3 3.6 0 1.9 1.4 3.5 3.3 3.5s3.3-1.6 3.3-3.5c0-1.8-1.4-3.6-3.3-3.6zM179 485.6v-15.1h2.7v15.1H179zM201.1 474.8c-1-1.2-2.4-2-4.1-2-2.8 0-4.9 2.6-4.9 5.2 0 2.7 2.2 5.3 5 5.3 1.6 0 2.7-.7 3.8-1.9h3.2c-1.2 2.8-4 4.5-7 4.5-4.3 0-7.9-3.6-7.9-7.9 0-4.3 3.5-7.8 7.8-7.8 2.2 0 4.1.9 5.7 2.4.7.7 1.1 1.2 1.5 2.2h-3.1zM217 481.1h-8.8c.4 1.3 1.6 2.4 3 2.4 1.1 0 2-.5 2.5-1.5h3c-.7 2.3-3 4-5.4 4-3.3 0-6-2.7-6-6s2.6-6.1 6-6.1c3.3 0 5.9 2.7 5.9 6-.1.3-.1.8-.2 1.2zm-5.7-4.8c-1.6 0-2.9 1.1-3.2 2.6h6.4c-.4-1.5-1.6-2.6-3.2-2.6zM226.4 485.6V480c0-1.6-.3-3.6-2.3-3.6-.9 0-1.7.6-2.1 1.4-.3.7-.3 1.7-.3 2.4v5.4H219v-11.3h2.5v1c.9-.9 1.8-1.4 3.1-1.4 1.6 0 3.2.9 3.9 2.3.5 1 .6 2.1.6 3.3v6.1h-2.7zM234.5 476.8v8.8h-2.7v-8.8h-1.3v-2.5h1.3v-3.8h2.7v3.8h1.6v2.5h-1.6zM240.5 479.2v6.4h-2.7v-11.3h2.5v1c.7-.9 1.3-1.4 2.5-1.4h.2v2.6c-1.8.1-2.5 1-2.5 2.7zM255.1 481.1h-8.8c.4 1.3 1.6 2.4 3 2.4 1.1 0 2-.5 2.5-1.5h3c-.7 2.3-3 4-5.4 4-3.3 0-6-2.7-6-6s2.6-6.1 6-6.1c3.3 0 5.9 2.7 5.9 6 0 .3-.1.8-.2 1.2zm-5.6-4.8c-1.6 0-2.9 1.1-3.2 2.6h6.4c-.4-1.5-1.6-2.6-3.2-2.6zM266.1 485.6v-1.4c-.9 1.1-2.4 1.8-3.9 1.8-3.2 0-5.6-2.9-5.6-6s2.4-6.1 5.7-6.1c1.2 0 2.6.5 3.5 1.4v-4.8h2.7v15.1h-2.4zm-3.4-9.2c-1.8 0-3.3 1.7-3.3 3.5 0 1.9 1.4 3.6 3.3 3.6s3.3-1.7 3.3-3.5c.1-2-1.4-3.6-3.3-3.6zM276.8 485.6v-15.1h2.8v15.1h-2.8zM289.6 485.6V480c0-1.6-.3-3.6-2.3-3.6-.9 0-1.7.6-2.1 1.4-.3.7-.3 1.7-.3 2.4v5.4h-2.7v-11.3h2.5v1c.9-.9 1.8-1.4 3.1-1.4 1.6 0 3.2.9 3.9 2.3.5 1 .6 2.1.6 3.3v6.1h-2.7zM294.7 473v-2.5h2.7v2.5h-2.7zm0 12.6v-11.3h2.7v11.3h-2.7zM302.9 476.8v8.8h-2.7v-8.8h-1.3v-2.5h1.3v-3.8h2.7v3.8h1.6v2.5h-1.6zM306.2 473v-2.5h2.7v2.5h-2.7zm0 12.6v-11.3h2.7v11.3h-2.7zM320.3 485.6v-1.4c-.9 1-2.6 1.8-4 1.8-3.4 0-5.5-2.9-5.5-6.1 0-3.3 2.3-6 5.7-6 1.4 0 2.9.7 3.8 1.8v-1.4h2.5v11.3h-2.5zm-3.4-9.2c-2 0-3.3 1.7-3.3 3.6 0 1.9 1.4 3.5 3.3 3.5 2 0 3.3-1.6 3.3-3.6s-1.3-3.5-3.3-3.5zM325.2 485.6v-15.1h2.7v15.1h-2.7zM340.6 473.1v12.5h-2.8v-12.5H335v-2.6h8.4v2.6h-2.8zM355.3 481.1h-8.8c.4 1.3 1.6 2.4 3 2.4 1.1 0 2-.5 2.5-1.5h3c-.7 2.3-3 4-5.4 4-3.3 0-6-2.7-6-6s2.6-6.1 6-6.1c3.3 0 5.9 2.7 5.9 6 0 .3-.1.8-.2 1.2zm-5.6-4.8c-1.6 0-2.9 1.1-3.2 2.6h6.4c-.4-1.5-1.6-2.6-3.2-2.6zM366.3 485.6v-1.4c-.9 1-2.6 1.8-4 1.8-3.4 0-5.5-2.9-5.5-6.1 0-3.3 2.3-6 5.7-6 1.4 0 2.9.7 3.8 1.8v-1.4h2.5v11.3h-2.5zm-3.4-9.2c-2 0-3.3 1.7-3.3 3.6 0 1.9 1.4 3.5 3.3 3.5 2 0 3.3-1.6 3.3-3.6s-1.3-3.5-3.3-3.5zM380 485c-.9.6-2.2.9-3.3.9-3.3 0-6-2.8-6-6.1s2.7-6 6-6c1.8 0 3.5.8 4.6 2.2.6.7.8 1.1 1 2h-3.1c-.6-1.1-1.3-1.6-2.6-1.6-2 0-3.3 1.6-3.3 3.6s1.4 3.5 3.4 3.5c1.1 0 2-.7 2.5-1.6h3.1c-.4 1.4-1 2.4-2.3 3.1zM391.3 485.6v-5.8c0-1.6-.3-3.5-2.3-3.5-2 0-2.3 1.9-2.3 3.5v5.8H384v-15.1h2.7v4.5c.8-.8 1.8-1.2 2.9-1.2 1.6 0 3.2 1 3.9 2.4.4.9.5 1.9.5 2.9v6.4l-2.7.1zM407.5 481.1h-8.8c.4 1.3 1.6 2.4 3 2.4 1.1 0 2-.5 2.5-1.5h3c-.7 2.3-3 4-5.4 4-3.3 0-6-2.7-6-6s2.6-6.1 6-6.1c3.3 0 5.9 2.7 5.9 6 0 .3 0 .8-.2 1.2zm-5.6-4.8c-1.6 0-2.9 1.1-3.2 2.6h6.4c-.4-1.5-1.6-2.6-3.2-2.6zM412.3 479.2v6.4h-2.7v-11.3h2.5v1c.7-.9 1.3-1.4 2.5-1.4h.2v2.6c-1.7.1-2.5 1-2.5 2.7zM426.4 473.1v12.5h-2.8v-12.5h-2.8v-2.6h8.4v2.6h-2.8zM433 479.2v6.4h-2.7v-11.3h2.5v1c.7-.9 1.3-1.4 2.5-1.4h.2v2.6c-1.8.1-2.5 1-2.5 2.7zM445.5 485.6v-1.4c-.9 1-2.6 1.8-4 1.8-3.4 0-5.5-2.9-5.5-6.1 0-3.3 2.3-6 5.7-6 1.4 0 2.9.7 3.8 1.8v-1.4h2.5v11.3h-2.5zm-3.4-9.2c-2 0-3.3 1.7-3.3 3.6 0 1.9 1.4 3.5 3.3 3.5 2 0 3.3-1.6 3.3-3.6s-1.3-3.5-3.3-3.5zM450.5 473v-2.5h2.7v2.5h-2.7zm0 12.6v-11.3h2.7v11.3h-2.7zM463 485.6V480c0-1.6-.3-3.6-2.3-3.6-.9 0-1.7.6-2.1 1.4-.3.7-.3 1.7-.3 2.4v5.4h-2.7v-11.3h2.5v1c.9-.9 1.8-1.4 3.1-1.4 1.6 0 3.2.9 3.9 2.3.5 1 .6 2.1.6 3.3v6.1H463zM468.1 473v-2.5h2.7v2.5h-2.7zm0 12.6v-11.3h2.7v11.3h-2.7zM480.6 485.6V480c0-1.6-.3-3.6-2.3-3.6-.9 0-1.7.6-2.1 1.4-.3.7-.3 1.7-.3 2.4v5.4h-2.7v-11.3h2.5v1c.9-.9 1.8-1.4 3.1-1.4 1.6 0 3.2.9 3.9 2.3.5 1 .6 2.1.6 3.3v6.1h-2.7zM495.3 488.6c-1.2 1.1-2.6 1.6-4.3 1.6-2.5 0-4.7-1.4-5.7-3.7h3.1c.7.8 1.6 1.3 2.8 1.3 2.1 0 3.4-1.5 3.5-3.6-1 1.2-2.2 1.8-3.7 1.8-3.3 0-5.8-2.9-5.8-6.1 0-3.2 2.5-6 5.8-6 1.6 0 2.8.5 3.8 1.8v-1.4h2.5v9.3c0 1.9-.5 3.6-2 5zm-4.1-12.2c-1.9 0-3.3 1.6-3.3 3.5s1.4 3.6 3.4 3.6c1.9 0 3.3-1.7 3.3-3.5 0-1.9-1.5-3.6-3.4-3.6z"/></g><path fill="#F9B235" d="M397.2 343.4c0-6.6-5.6-12.1-12.5-12.1s-12.5 5.4-12.5 12.1c0 6.6 5.6 12.1 12.5 12.1s12.5-5.4 12.5-12.1z"/></svg>